<?xml version="1.0" encoding="UTF-8" standalone="no"?>
<!DOCTYPE svg PUBLIC "-//W3C//DTD SVG 20010904//EN"
              "http://www.w3.org/TR/2001/REC-SVG-20010904/DTD/svg10.dtd">

<svg xmlns="http://www.w3.org/2000/svg"
     width="3.55556in" height="3.55556in"
     viewBox="0 0 256 256">
  <path id="Path #1"
        fill="none" stroke="black" stroke-width="1"
        d="M 201.20,146.50
           C 193.35,140.17 180.97,137.00 164.08,137.00
             157.39,137.00 151.02,137.51 144.97,138.53
             138.93,139.54 133.09,141.07 127.45,143.12
             127.45,143.12 127.45,164.12 127.45,164.12
             127.45,164.12 137.73,164.12 137.73,164.12
             139.13,158.04 141.50,153.67 144.84,151.00
             148.20,148.34 152.97,147.00 159.16,147.00
             166.61,147.00 172.12,148.89 175.67,152.66
             179.22,156.43 181.00,162.28 181.00,170.20
             181.00,170.20 181.00,176.00 181.00,176.00
             181.00,176.00 164.56,176.00 164.56,176.00
             149.66,176.00 138.50,178.65 131.09,183.94
             123.70,189.23 120.00,197.20 120.00,207.84
             120.00,217.53 122.58,224.98 127.73,230.19
             132.89,235.39 140.27,238.00 149.88,238.00
             156.36,238.00 162.14,236.79 167.20,234.38
             172.27,231.95 176.88,228.20 181.00,223.12
             181.00,223.12 181.00,235.00 181.00,235.00
             181.00,235.00 226.00,235.00 226.00,235.00
             226.00,235.00 226.00,224.00 226.00,224.00
             226.00,224.00 213.00,224.00 213.00,224.00
             213.00,224.00 213.00,176.34 213.00,176.34
             213.00,162.78 209.07,152.84 201.20,146.50 Z
           M 176.56,218.14
           C 173.60,221.38 169.70,223.00 164.86,223.00
             160.18,223.00 156.70,221.50 154.42,218.50
             152.14,215.49 151.00,210.95 151.00,204.88
             151.00,198.79 152.57,194.12 155.70,190.88
             158.85,187.62 163.35,186.00 169.20,186.00
             169.20,186.00 181.00,186.00 181.00,186.00
             181.00,186.00 181.00,205.23 181.00,205.23
             181.00,210.59 179.52,214.89 176.56,218.14 Z
           M 148.47,115.53
           C 153.45,120.51 159.46,123.00 166.50,123.00
             173.54,123.00 179.55,120.51 184.53,115.53
             189.51,110.55 192.00,104.54 192.00,97.50
             192.00,90.46 189.51,84.45 184.53,79.47
             179.55,74.49 173.54,72.00 166.50,72.00
             159.46,72.00 153.45,74.49 148.47,79.47
             143.49,84.45 141.00,90.46 141.00,97.50
             141.00,104.54 143.49,110.55 148.47,115.53 Z
           M 158.33,89.38
           C 160.55,87.12 163.28,86.00 166.50,86.00
             169.66,86.00 172.38,87.12 174.62,89.38
             176.88,91.62 178.00,94.34 178.00,97.50
             178.00,100.67 176.89,103.38 174.67,105.62
             172.45,107.88 169.73,109.00 166.50,109.00
             163.33,109.00 160.62,107.89 158.38,105.67
             156.12,103.45 155.00,100.72 155.00,97.50
             155.00,94.34 156.11,91.62 158.33,89.38 Z" />
  <path id="Path"
        fill="none" stroke="black" stroke-width="1"
        d="M 96.00,48.00
           C 96.00,48.00 96.00,59.00 96.00,59.00
             96.00,59.00 113.00,59.00 113.00,59.00
             113.00,59.00 113.00,117.00 113.00,117.00
             113.00,117.00 84.67,117.00 84.67,117.00
             78.85,117.00 74.11,115.06 70.47,111.19
             66.82,107.30 65.00,101.79 65.00,94.64
             65.00,94.64 65.00,59.00 65.00,59.00
             65.00,59.00 80.00,59.00 80.00,59.00
             80.00,59.00 80.00,48.00 80.00,48.00
             80.00,48.00 13.00,48.00 13.00,48.00
             13.00,48.00 13.00,59.00 13.00,59.00
             13.00,59.00 30.00,59.00 30.00,59.00
             30.00,59.00 30.00,94.67 30.00,94.67
             30.00,104.48 34.04,112.50 42.12,118.70
             50.22,124.90 61.07,128.00 74.69,128.00
             74.69,128.00 113.00,128.00 113.00,128.00
             113.00,128.00 113.00,171.00 113.00,171.00
             113.00,171.00 96.00,171.00 96.00,171.00
             96.00,171.00 96.00,182.00 96.00,182.00
             96.00,182.00 165.00,182.00 165.00,182.00
             165.00,182.00 165.00,171.00 165.00,171.00
             165.00,171.00 148.00,171.00 148.00,171.00
             148.00,171.00 148.00,59.00 148.00,59.00
             148.00,59.00 165.00,59.00 165.00,59.00
             165.00,59.00 165.00,48.00 165.00,48.00
             165.00,48.00 96.00,48.00 96.00,48.00 Z" />
</svg>
